<svg width="530" height="96" viewBox="0 0 530 96" fill="none" xmlns="http://www.w3.org/2000/svg">
<path d="M11 94.3333C15.6024 94.3333 19.3334 90.6023 19.3334 86C19.3334 81.3976 15.6024 77.6666 11 77.6666C6.39765 77.6666 2.66669 81.3976 2.66669 86C2.66669 90.6023 6.39765 94.3333 11 94.3333Z" stroke="#DC2626" stroke-width="1.25"/>
<path d="M10.9933 88.5H11.0008" stroke="#DC2626" stroke-width="1.66667" stroke-linecap="round" stroke-linejoin="round"/>
<path d="M11 86V82.6666" stroke="#DC2626" stroke-width="1.25" stroke-linecap="round" stroke-linejoin="round"/>
<path d="M27.352 81.242V91H26.078V81.242H27.352ZM33.2613 83.188C34.1946 83.188 34.9506 83.4727 35.5293 84.042C36.108 84.602 36.3973 85.414 36.3973 86.478V91H35.1373V86.66C35.1373 85.8947 34.946 85.3113 34.5633 84.91C34.1806 84.4993 33.658 84.294 32.9953 84.294C32.3233 84.294 31.7866 84.504 31.3853 84.924C30.9933 85.344 30.7973 85.9553 30.7973 86.758V91H29.5233V83.328H30.7973V84.42C31.0493 84.028 31.39 83.7247 31.8193 83.51C32.258 83.2953 32.7386 83.188 33.2613 83.188ZM41.1944 91.126C40.6064 91.126 40.0791 91.028 39.6124 90.832C39.1457 90.6267 38.7771 90.3467 38.5064 89.992C38.2357 89.628 38.0864 89.2127 38.0584 88.746H39.3744C39.4117 89.1287 39.5891 89.4413 39.9064 89.684C40.2331 89.9267 40.6577 90.048 41.1804 90.048C41.6657 90.048 42.0484 89.9407 42.3284 89.726C42.6084 89.5113 42.7484 89.2407 42.7484 88.914C42.7484 88.578 42.5991 88.3307 42.3004 88.172C42.0017 88.004 41.5397 87.8407 40.9144 87.682C40.3451 87.5327 39.8784 87.3833 39.5144 87.234C39.1597 87.0753 38.8517 86.8467 38.5904 86.548C38.3384 86.24 38.2124 85.8387 38.2124 85.344C38.2124 84.952 38.3291 84.5927 38.5624 84.266C38.7957 83.9393 39.1271 83.6827 39.5564 83.496C39.9857 83.3 40.4757 83.202 41.0264 83.202C41.8757 83.202 42.5617 83.4167 43.0844 83.846C43.6071 84.2753 43.8871 84.8633 43.9244 85.61H42.6504C42.6224 85.2087 42.4591 84.8867 42.1604 84.644C41.8711 84.4013 41.4791 84.28 40.9844 84.28C40.5271 84.28 40.1631 84.378 39.8924 84.574C39.6217 84.77 39.4864 85.0267 39.4864 85.344C39.4864 85.596 39.5657 85.806 39.7244 85.974C39.8924 86.1327 40.0977 86.2633 40.3404 86.366C40.5924 86.4593 40.9377 86.5667 41.3764 86.688C41.9271 86.8373 42.3751 86.9867 42.7204 87.136C43.0657 87.276 43.3597 87.4907 43.6024 87.78C43.8544 88.0693 43.9851 88.4473 43.9944 88.914C43.9944 89.334 43.8777 89.712 43.6444 90.048C43.4111 90.384 43.0797 90.65 42.6504 90.846C42.2304 91.0327 41.7451 91.126 41.1944 91.126ZM46.4508 82.082C46.2082 82.082 46.0028 81.998 45.8348 81.83C45.6668 81.662 45.5828 81.4567 45.5828 81.214C45.5828 80.9713 45.6668 80.766 45.8348 80.598C46.0028 80.43 46.2082 80.346 46.4508 80.346C46.6842 80.346 46.8802 80.43 47.0388 80.598C47.2068 80.766 47.2908 80.9713 47.2908 81.214C47.2908 81.4567 47.2068 81.662 47.0388 81.83C46.8802 81.998 46.6842 82.082 46.4508 82.082ZM47.0668 83.328V91H45.7928V83.328H47.0668ZM50.5122 84.574C50.7362 84.1353 51.0535 83.7947 51.4642 83.552C51.8842 83.3093 52.3928 83.188 52.9902 83.188V84.504H52.6542C51.2262 84.504 50.5122 85.2787 50.5122 86.828V91H49.2382V83.328H50.5122V84.574ZM53.9848 87.136C53.9848 86.352 54.1435 85.666 54.4608 85.078C54.7781 84.4807 55.2121 84.0187 55.7628 83.692C56.3228 83.3653 56.9435 83.202 57.6248 83.202C58.2968 83.202 58.8801 83.3467 59.3748 83.636C59.8695 83.9253 60.2381 84.2893 60.4808 84.728V83.328H61.7688V91H60.4808V89.572C60.2288 90.02 59.8508 90.3933 59.3468 90.692C58.8521 90.9813 58.2735 91.126 57.6108 91.126C56.9295 91.126 56.3135 90.958 55.7628 90.622C55.2121 90.286 54.7781 89.8147 54.4608 89.208C54.1435 88.6013 53.9848 87.9107 53.9848 87.136ZM60.4808 87.15C60.4808 86.5713 60.3641 86.0673 60.1308 85.638C59.8975 85.2087 59.5801 84.882 59.1788 84.658C58.7868 84.4247 58.3528 84.308 57.8768 84.308C57.4008 84.308 56.9668 84.42 56.5748 84.644C56.1828 84.868 55.8701 85.1947 55.6368 85.624C55.4035 86.0533 55.2868 86.5573 55.2868 87.136C55.2868 87.724 55.4035 88.2373 55.6368 88.676C55.8701 89.1053 56.1828 89.4367 56.5748 89.67C56.9668 89.894 57.4008 90.006 57.8768 90.006C58.3528 90.006 58.7868 89.894 59.1788 89.67C59.5801 89.4367 59.8975 89.1053 60.1308 88.676C60.3641 88.2373 60.4808 87.7287 60.4808 87.15ZM74.4582 83.328V91H73.1842V89.866C72.9415 90.258 72.6008 90.566 72.1622 90.79C71.7328 91.0047 71.2568 91.112 70.7342 91.112C70.1368 91.112 69.6002 90.9907 69.1242 90.748C68.6482 90.496 68.2702 90.1227 67.9902 89.628C67.7195 89.1333 67.5842 88.5313 67.5842 87.822V83.328H68.8442V87.654C68.8442 88.41 69.0355 88.9933 69.4182 89.404C69.8008 89.8053 70.3235 90.006 70.9862 90.006C71.6675 90.006 72.2042 89.796 72.5962 89.376C72.9882 88.956 73.1842 88.3447 73.1842 87.542V83.328H74.4582ZM85.8353 83.188C86.4326 83.188 86.9646 83.314 87.4313 83.566C87.8979 83.8087 88.2666 84.1773 88.5373 84.672C88.8079 85.1667 88.9433 85.7687 88.9433 86.478V91H87.6833V86.66C87.6833 85.8947 87.4919 85.3113 87.1093 84.91C86.7359 84.4993 86.2273 84.294 85.5833 84.294C84.9206 84.294 84.3933 84.5087 84.0013 84.938C83.6093 85.358 83.4133 85.9693 83.4133 86.772V91H82.1533V86.66C82.1533 85.8947 81.9619 85.3113 81.5793 84.91C81.2059 84.4993 80.6973 84.294 80.0533 84.294C79.3906 84.294 78.8633 84.5087 78.4713 84.938C78.0793 85.358 77.8833 85.9693 77.8833 86.772V91H76.6093V83.328H77.8833V84.434C78.1353 84.0327 78.4713 83.7247 78.8913 83.51C79.3206 83.2953 79.7919 83.188 80.3053 83.188C80.9493 83.188 81.5186 83.3327 82.0133 83.622C82.5079 83.9113 82.8766 84.336 83.1193 84.896C83.3339 84.3547 83.6886 83.9347 84.1833 83.636C84.6779 83.3373 85.2286 83.188 85.8353 83.188ZM101.766 86.87C101.766 87.1127 101.752 87.3693 101.724 87.64H95.5915C95.6382 88.396 95.8948 88.9887 96.3615 89.418C96.8375 89.838 97.4115 90.048 98.0835 90.048C98.6342 90.048 99.0915 89.922 99.4555 89.67C99.8288 89.4087 100.09 89.0633 100.24 88.634H101.612C101.406 89.3713 100.996 89.9733 100.38 90.44C99.7635 90.8973 98.9982 91.126 98.0835 91.126C97.3555 91.126 96.7022 90.9627 96.1235 90.636C95.5542 90.3093 95.1062 89.8473 94.7795 89.25C94.4528 88.6433 94.2895 87.9433 94.2895 87.15C94.2895 86.3567 94.4482 85.6613 94.7655 85.064C95.0828 84.4667 95.5262 84.0093 96.0955 83.692C96.6742 83.3653 97.3368 83.202 98.0835 83.202C98.8115 83.202 99.4555 83.3607 100.016 83.678C100.576 83.9953 101.005 84.434 101.304 84.994C101.612 85.5447 101.766 86.17 101.766 86.87ZM100.45 86.604C100.45 86.1187 100.342 85.7033 100.128 85.358C99.9128 85.0033 99.6188 84.7373 99.2455 84.56C98.8815 84.3733 98.4755 84.28 98.0275 84.28C97.3835 84.28 96.8328 84.4853 96.3755 84.896C95.9275 85.3067 95.6708 85.876 95.6055 86.604H100.45ZM108.767 85.33V86.408H103.181V85.33H108.767ZM120.384 83.188C120.981 83.188 121.513 83.314 121.98 83.566C122.447 83.8087 122.815 84.1773 123.086 84.672C123.357 85.1667 123.492 85.7687 123.492 86.478V91H122.232V86.66C122.232 85.8947 122.041 85.3113 121.658 84.91C121.285 84.4993 120.776 84.294 120.132 84.294C119.469 84.294 118.942 84.5087 118.55 84.938C118.158 85.358 117.962 85.9693 117.962 86.772V91H116.702V86.66C116.702 85.8947 116.511 85.3113 116.128 84.91C115.755 84.4993 115.246 84.294 114.602 84.294C113.939 84.294 113.412 84.5087 113.02 84.938C112.628 85.358 112.432 85.9693 112.432 86.772V91H111.158V83.328H112.432V84.434C112.684 84.0327 113.02 83.7247 113.44 83.51C113.869 83.2953 114.341 83.188 114.854 83.188C115.498 83.188 116.067 83.3327 116.562 83.622C117.057 83.9113 117.425 84.336 117.668 84.896C117.883 84.3547 118.237 83.9347 118.732 83.636C119.227 83.3373 119.777 83.188 120.384 83.188ZM125.106 87.136C125.106 86.352 125.265 85.666 125.582 85.078C125.899 84.4807 126.333 84.0187 126.884 83.692C127.444 83.3653 128.065 83.202 128.746 83.202C129.418 83.202 130.001 83.3467 130.496 83.636C130.991 83.9253 131.359 84.2893 131.602 84.728V83.328H132.89V91H131.602V89.572C131.35 90.02 130.972 90.3933 130.468 90.692C129.973 90.9813 129.395 91.126 128.732 91.126C128.051 91.126 127.435 90.958 126.884 90.622C126.333 90.286 125.899 89.8147 125.582 89.208C125.265 88.6013 125.106 87.9107 125.106 87.136ZM131.602 87.15C131.602 86.5713 131.485 86.0673 131.252 85.638C131.019 85.2087 130.701 84.882 130.3 84.658C129.908 84.4247 129.474 84.308 128.998 84.308C128.522 84.308 128.088 84.42 127.696 84.644C127.304 84.868 126.991 85.1947 126.758 85.624C126.525 86.0533 126.408 86.5573 126.408 87.136C126.408 87.724 126.525 88.2373 126.758 88.676C126.991 89.1053 127.304 89.4367 127.696 89.67C128.088 89.894 128.522 90.006 128.998 90.006C129.474 90.006 129.908 89.894 130.3 89.67C130.701 89.4367 131.019 89.1053 131.252 88.676C131.485 88.2373 131.602 87.7287 131.602 87.15ZM135.701 82.082C135.458 82.082 135.253 81.998 135.085 81.83C134.917 81.662 134.833 81.4567 134.833 81.214C134.833 80.9713 134.917 80.766 135.085 80.598C135.253 80.43 135.458 80.346 135.701 80.346C135.934 80.346 136.13 80.43 136.289 80.598C136.457 80.766 136.541 80.9713 136.541 81.214C136.541 81.4567 136.457 81.662 136.289 81.83C136.13 81.998 135.934 82.082 135.701 82.082ZM136.317 83.328V91H135.043V83.328H136.317ZM139.762 80.64V91H138.488V80.64H139.762ZM148.522 89.824L150.902 83.328H152.26L149.25 91H147.766L144.756 83.328H146.128L148.522 89.824ZM153.038 87.136C153.038 86.352 153.196 85.666 153.514 85.078C153.831 84.4807 154.265 84.0187 154.816 83.692C155.376 83.3653 155.996 83.202 156.678 83.202C157.35 83.202 157.933 83.3467 158.428 83.636C158.922 83.9253 159.291 84.2893 159.534 84.728V83.328H160.822V91H159.534V89.572C159.282 90.02 158.904 90.3933 158.4 90.692C157.905 90.9813 157.326 91.126 156.664 91.126C155.982 91.126 155.366 90.958 154.816 90.622C154.265 90.286 153.831 89.8147 153.514 89.208C153.196 88.6013 153.038 87.9107 153.038 87.136ZM159.534 87.15C159.534 86.5713 159.417 86.0673 159.184 85.638C158.95 85.2087 158.633 84.882 158.232 84.658C157.84 84.4247 157.406 84.308 156.93 84.308C156.454 84.308 156.02 84.42 155.628 84.644C155.236 84.868 154.923 85.1947 154.69 85.624C154.456 86.0533 154.34 86.5573 154.34 87.136C154.34 87.724 154.456 88.2373 154.69 88.676C154.923 89.1053 155.236 89.4367 155.628 89.67C156.02 89.894 156.454 90.006 156.93 90.006C157.406 90.006 157.84 89.894 158.232 89.67C158.633 89.4367 158.95 89.1053 159.184 88.676C159.417 88.2373 159.534 87.7287 159.534 87.15ZM158.54 81.158L155.558 82.754V81.802L158.54 80.052V81.158ZM164.248 80.64V91H162.974V80.64H164.248ZM167.078 82.082C166.835 82.082 166.63 81.998 166.462 81.83C166.294 81.662 166.21 81.4567 166.21 81.214C166.21 80.9713 166.294 80.766 166.462 80.598C166.63 80.43 166.835 80.346 167.078 80.346C167.311 80.346 167.507 80.43 167.666 80.598C167.834 80.766 167.918 80.9713 167.918 81.214C167.918 81.4567 167.834 81.662 167.666 81.83C167.507 81.998 167.311 82.082 167.078 82.082ZM167.694 83.328V91H166.42V83.328H167.694ZM169.389 87.136C169.389 86.352 169.548 85.666 169.865 85.078C170.182 84.4807 170.616 84.0187 171.167 83.692C171.727 83.3653 172.352 83.202 173.043 83.202C173.64 83.202 174.196 83.342 174.709 83.622C175.222 83.8927 175.614 84.252 175.885 84.7V80.64H177.173V91H175.885V89.558C175.633 90.0153 175.26 90.3933 174.765 90.692C174.27 90.9813 173.692 91.126 173.029 91.126C172.348 91.126 171.727 90.958 171.167 90.622C170.616 90.286 170.182 89.8147 169.865 89.208C169.548 88.6013 169.389 87.9107 169.389 87.136ZM175.885 87.15C175.885 86.5713 175.768 86.0673 175.535 85.638C175.302 85.2087 174.984 84.882 174.583 84.658C174.191 84.4247 173.757 84.308 173.281 84.308C172.805 84.308 172.371 84.42 171.979 84.644C171.587 84.868 171.274 85.1947 171.041 85.624C170.808 86.0533 170.691 86.5573 170.691 87.136C170.691 87.724 170.808 88.2373 171.041 88.676C171.274 89.1053 171.587 89.4367 171.979 89.67C172.371 89.894 172.805 90.006 173.281 90.006C173.757 90.006 174.191 89.894 174.583 89.67C174.984 89.4367 175.302 89.1053 175.535 88.676C175.768 88.2373 175.885 87.7287 175.885 87.15ZM182.672 91.126C181.953 91.126 181.3 90.9627 180.712 90.636C180.133 90.3093 179.676 89.8473 179.34 89.25C179.013 88.6433 178.85 87.9433 178.85 87.15C178.85 86.366 179.018 85.6753 179.354 85.078C179.699 84.4713 180.166 84.0093 180.754 83.692C181.342 83.3653 182 83.202 182.728 83.202C183.456 83.202 184.114 83.3653 184.702 83.692C185.29 84.0093 185.752 84.4667 186.088 85.064C186.433 85.6613 186.606 86.3567 186.606 87.15C186.606 87.9433 186.429 88.6433 186.074 89.25C185.729 89.8473 185.257 90.3093 184.66 90.636C184.063 90.9627 183.4 91.126 182.672 91.126ZM182.672 90.006C183.129 90.006 183.559 89.8987 183.96 89.684C184.361 89.4693 184.683 89.1473 184.926 88.718C185.178 88.2887 185.304 87.766 185.304 87.15C185.304 86.534 185.183 86.0113 184.94 85.582C184.697 85.1527 184.38 84.8353 183.988 84.63C183.596 84.4153 183.171 84.308 182.714 84.308C182.247 84.308 181.818 84.4153 181.426 84.63C181.043 84.8353 180.735 85.1527 180.502 85.582C180.269 86.0113 180.152 86.534 180.152 87.15C180.152 87.7753 180.264 88.3027 180.488 88.732C180.721 89.1613 181.029 89.4833 181.412 89.698C181.795 89.9033 182.215 90.006 182.672 90.006Z" fill="#DC2626"/>
<rect x="1" y="24" width="528" height="48" rx="8" fill="white"/>
<rect x="1" y="24" width="528" height="48" rx="8" stroke="#DC2626" stroke-width="2"/>
<path d="M19.688 46.848C19.976 46.3467 20.4027 45.9307 20.968 45.6C21.544 45.2587 22.2107 45.088 22.968 45.088C23.7467 45.088 24.4507 45.2747 25.08 45.648C25.72 46.0213 26.2213 46.5493 26.584 47.232C26.9467 47.904 27.128 48.688 27.128 49.584C27.128 50.4693 26.9467 51.2587 26.584 51.952C26.2213 52.6453 25.72 53.184 25.08 53.568C24.4507 53.952 23.7467 54.144 22.968 54.144C22.2213 54.144 21.56 53.9787 20.984 53.648C20.4187 53.3067 19.9867 52.8853 19.688 52.384V58.16H18.232V45.232H19.688V46.848ZM25.64 49.584C25.64 48.9227 25.5067 48.3467 25.24 47.856C24.9733 47.3653 24.6107 46.992 24.152 46.736C23.704 46.48 23.208 46.352 22.664 46.352C22.1307 46.352 21.6347 46.4853 21.176 46.752C20.728 47.008 20.3653 47.3867 20.088 47.888C19.8213 48.3787 19.688 48.9493 19.688 49.6C19.688 50.2613 19.8213 50.8427 20.088 51.344C20.3653 51.8347 20.728 52.2133 21.176 52.48C21.6347 52.736 22.1307 52.864 22.664 52.864C23.208 52.864 23.704 52.736 24.152 52.48C24.6107 52.2133 24.9733 51.8347 25.24 51.344C25.5067 50.8427 25.64 50.256 25.64 49.584ZM28.5005 49.584C28.5005 48.688 28.6818 47.904 29.0445 47.232C29.4072 46.5493 29.9032 46.0213 30.5325 45.648C31.1725 45.2747 31.8818 45.088 32.6605 45.088C33.4285 45.088 34.0952 45.2533 34.6605 45.584C35.2258 45.9147 35.6472 46.3307 35.9245 46.832V45.232H37.3965V54H35.9245V52.368C35.6365 52.88 35.2045 53.3067 34.6285 53.648C34.0632 53.9787 33.4018 54.144 32.6445 54.144C31.8658 54.144 31.1618 53.952 30.5325 53.568C29.9032 53.184 29.4072 52.6453 29.0445 51.952C28.6818 51.2587 28.5005 50.4693 28.5005 49.584ZM35.9245 49.6C35.9245 48.9387 35.7912 48.3627 35.5245 47.872C35.2578 47.3813 34.8952 47.008 34.4365 46.752C33.9885 46.4853 33.4925 46.352 32.9485 46.352C32.4045 46.352 31.9085 46.48 31.4605 46.736C31.0125 46.992 30.6552 47.3653 30.3885 47.856C30.1218 48.3467 29.9885 48.9227 29.9885 49.584C29.9885 50.256 30.1218 50.8427 30.3885 51.344C30.6552 51.8347 31.0125 52.2133 31.4605 52.48C31.9085 52.736 32.4045 52.864 32.9485 52.864C33.4925 52.864 33.9885 52.736 34.4365 52.48C34.8952 52.2133 35.2578 51.8347 35.5245 51.344C35.7912 50.8427 35.9245 50.2613 35.9245 49.6ZM41.313 46.848C41.601 46.3467 42.0277 45.9307 42.593 45.6C43.169 45.2587 43.8357 45.088 44.593 45.088C45.3717 45.088 46.0757 45.2747 46.705 45.648C47.345 46.0213 47.8463 46.5493 48.209 47.232C48.5717 47.904 48.753 48.688 48.753 49.584C48.753 50.4693 48.5717 51.2587 48.209 51.952C47.8463 52.6453 47.345 53.184 46.705 53.568C46.0757 53.952 45.3717 54.144 44.593 54.144C43.8463 54.144 43.185 53.9787 42.609 53.648C42.0437 53.3067 41.6117 52.8853 41.313 52.384V58.16H39.857V45.232H41.313V46.848ZM47.265 49.584C47.265 48.9227 47.1317 48.3467 46.865 47.856C46.5983 47.3653 46.2357 46.992 45.777 46.736C45.329 46.48 44.833 46.352 44.289 46.352C43.7557 46.352 43.2597 46.4853 42.801 46.752C42.353 47.008 41.9903 47.3867 41.713 47.888C41.4463 48.3787 41.313 48.9493 41.313 49.6C41.313 50.2613 41.4463 50.8427 41.713 51.344C41.9903 51.8347 42.353 52.2133 42.801 52.48C43.2597 52.736 43.7557 52.864 44.289 52.864C44.833 52.864 45.329 52.736 45.777 52.48C46.2357 52.2133 46.5983 51.8347 46.865 51.344C47.1317 50.8427 47.265 50.256 47.265 49.584ZM50.1255 49.584C50.1255 48.688 50.3068 47.904 50.6695 47.232C51.0322 46.5493 51.5282 46.0213 52.1575 45.648C52.7975 45.2747 53.5068 45.088 54.2855 45.088C55.0535 45.088 55.7202 45.2533 56.2855 45.584C56.8508 45.9147 57.2722 46.3307 57.5495 46.832V45.232H59.0215V54H57.5495V52.368C57.2615 52.88 56.8295 53.3067 56.2535 53.648C55.6882 53.9787 55.0268 54.144 54.2695 54.144C53.4908 54.144 52.7868 53.952 52.1575 53.568C51.5282 53.184 51.0322 52.6453 50.6695 51.952C50.3068 51.2587 50.1255 50.4693 50.1255 49.584ZM57.5495 49.6C57.5495 48.9387 57.4162 48.3627 57.1495 47.872C56.8828 47.3813 56.5202 47.008 56.0615 46.752C55.6135 46.4853 55.1175 46.352 54.5735 46.352C54.0295 46.352 53.5335 46.48 53.0855 46.736C52.6375 46.992 52.2802 47.3653 52.0135 47.856C51.7468 48.3467 51.6135 48.9227 51.6135 49.584C51.6135 50.256 51.7468 50.8427 52.0135 51.344C52.2802 51.8347 52.6375 52.2133 53.0855 52.48C53.5335 52.736 54.0295 52.864 54.5735 52.864C55.1175 52.864 55.6135 52.736 56.0615 52.48C56.5202 52.2133 56.8828 51.8347 57.1495 51.344C57.4162 50.8427 57.5495 50.2613 57.5495 49.6ZM62.234 43.808C61.9567 43.808 61.722 43.712 61.53 43.52C61.338 43.328 61.242 43.0933 61.242 42.816C61.242 42.5387 61.338 42.304 61.53 42.112C61.722 41.92 61.9567 41.824 62.234 41.824C62.5007 41.824 62.7247 41.92 62.906 42.112C63.098 42.304 63.194 42.5387 63.194 42.816C63.194 43.0933 63.098 43.328 62.906 43.52C62.7247 43.712 62.5007 43.808 62.234 43.808ZM62.938 45.232V54H61.482V45.232H62.938ZM66.8755 42.16V54H65.4195V42.16H66.8755ZM77.357 49.28C77.357 49.5573 77.341 49.8507 77.309 50.16H70.301C70.3543 51.024 70.6477 51.7013 71.181 52.192C71.725 52.672 72.381 52.912 73.149 52.912C73.7783 52.912 74.301 52.768 74.717 52.48C75.1437 52.1813 75.4423 51.7867 75.613 51.296H77.181C76.9463 52.1387 76.477 52.8267 75.773 53.36C75.069 53.8827 74.1943 54.144 73.149 54.144C72.317 54.144 71.5703 53.9573 70.909 53.584C70.2583 53.2107 69.7463 52.6827 69.373 52C68.9997 51.3067 68.813 50.5067 68.813 49.6C68.813 48.6933 68.9943 47.8987 69.357 47.216C69.7197 46.5333 70.2263 46.0107 70.877 45.648C71.5383 45.2747 72.2957 45.088 73.149 45.088C73.981 45.088 74.717 45.2693 75.357 45.632C75.997 45.9947 76.4877 46.496 76.829 47.136C77.181 47.7653 77.357 48.48 77.357 49.28ZM75.853 48.976C75.853 48.4213 75.7303 47.9467 75.485 47.552C75.2397 47.1467 74.9037 46.8427 74.477 46.64C74.061 46.4267 73.597 46.32 73.085 46.32C72.349 46.32 71.7197 46.5547 71.197 47.024C70.685 47.4933 70.3917 48.144 70.317 48.976H75.853ZM82.8949 45.088C83.6522 45.088 84.3135 45.2533 84.8789 45.584C85.4549 45.9147 85.8815 46.3307 86.1589 46.832V45.232H87.6309V54.192C87.6309 54.992 87.4602 55.7013 87.1189 56.32C86.7775 56.9493 86.2869 57.44 85.6469 57.792C85.0175 58.144 84.2815 58.32 83.4389 58.32C82.2869 58.32 81.3269 58.048 80.5589 57.504C79.7909 56.96 79.3375 56.2187 79.1989 55.28H80.6389C80.7989 55.8133 81.1295 56.24 81.6309 56.56C82.1322 56.8907 82.7349 57.056 83.4389 57.056C84.2389 57.056 84.8895 56.8053 85.3909 56.304C85.9029 55.8027 86.1589 55.0987 86.1589 54.192V52.352C85.8709 52.864 85.4442 53.2907 84.8789 53.632C84.3135 53.9733 83.6522 54.144 82.8949 54.144C82.1162 54.144 81.4069 53.952 80.7669 53.568C80.1375 53.184 79.6415 52.6453 79.2789 51.952C78.9162 51.2587 78.7349 50.4693 78.7349 49.584C78.7349 48.688 78.9162 47.904 79.2789 47.232C79.6415 46.5493 80.1375 46.0213 80.7669 45.648C81.4069 45.2747 82.1162 45.088 82.8949 45.088ZM86.1589 49.6C86.1589 48.9387 86.0255 48.3627 85.7589 47.872C85.4922 47.3813 85.1295 47.008 84.6709 46.752C84.2229 46.4853 83.7269 46.352 83.1829 46.352C82.6389 46.352 82.1429 46.48 81.6949 46.736C81.2469 46.992 80.8895 47.3653 80.6229 47.856C80.3562 48.3467 80.2229 48.9227 80.2229 49.584C80.2229 50.256 80.3562 50.8427 80.6229 51.344C80.8895 51.8347 81.2469 52.2133 81.6949 52.48C82.1429 52.736 82.6389 52.864 83.1829 52.864C83.7269 52.864 84.2229 52.736 84.6709 52.48C85.1295 52.2133 85.4922 51.8347 85.7589 51.344C86.0255 50.8427 86.1589 50.2613 86.1589 49.6ZM89.5474 49.584C89.5474 48.688 89.7287 47.904 90.0914 47.232C90.454 46.5493 90.95 46.0213 91.5794 45.648C92.2194 45.2747 92.9287 45.088 93.7074 45.088C94.4754 45.088 95.142 45.2533 95.7074 45.584C96.2727 45.9147 96.694 46.3307 96.9714 46.832V45.232H98.4434V54H96.9714V52.368C96.6834 52.88 96.2514 53.3067 95.6754 53.648C95.11 53.9787 94.4487 54.144 93.6914 54.144C92.9127 54.144 92.2087 53.952 91.5794 53.568C90.95 53.184 90.454 52.6453 90.0914 51.952C89.7287 51.2587 89.5474 50.4693 89.5474 49.584ZM96.9714 49.6C96.9714 48.9387 96.838 48.3627 96.5714 47.872C96.3047 47.3813 95.942 47.008 95.4834 46.752C95.0354 46.4853 94.5394 46.352 93.9954 46.352C93.4514 46.352 92.9554 46.48 92.5074 46.736C92.0594 46.992 91.702 47.3653 91.4354 47.856C91.1687 48.3467 91.0354 48.9227 91.0354 49.584C91.0354 50.256 91.1687 50.8427 91.4354 51.344C91.702 51.8347 92.0594 52.2133 92.5074 52.48C92.9554 52.736 93.4514 52.864 93.9954 52.864C94.5394 52.864 95.0354 52.736 95.4834 52.48C95.942 52.2133 96.3047 51.8347 96.5714 51.344C96.838 50.8427 96.9714 50.2613 96.9714 49.6ZM102.36 42.16V54H100.904V42.16H102.36ZM104.217 43.76V42.432H107.225V54H105.753V43.76H104.217ZM109.55 52.832C110.905 51.744 111.966 50.8533 112.734 50.16C113.502 49.456 114.148 48.7253 114.67 47.968C115.204 47.2 115.47 46.448 115.47 45.712C115.47 45.0187 115.3 44.4747 114.958 44.08C114.628 43.6747 114.089 43.472 113.342 43.472C112.617 43.472 112.052 43.7013 111.646 44.16C111.252 44.608 111.038 45.2107 111.006 45.968H109.598C109.641 44.7733 110.004 43.8507 110.686 43.2C111.369 42.5493 112.249 42.224 113.326 42.224C114.425 42.224 115.294 42.528 115.934 43.136C116.585 43.744 116.91 44.5813 116.91 45.648C116.91 46.5333 116.644 47.3973 116.11 48.24C115.588 49.072 114.99 49.808 114.318 50.448C113.646 51.0773 112.788 51.8133 111.742 52.656H117.246V53.872H109.55V52.832ZM118.898 45.344C118.972 44.3627 119.351 43.5947 120.034 43.04C120.716 42.4853 121.602 42.208 122.69 42.208C123.415 42.208 124.039 42.3413 124.562 42.608C125.095 42.864 125.495 43.216 125.762 43.664C126.039 44.112 126.178 44.6187 126.178 45.184C126.178 45.8453 125.986 46.416 125.602 46.896C125.228 47.376 124.738 47.6853 124.13 47.824V47.904C124.823 48.0747 125.372 48.4107 125.778 48.912C126.183 49.4133 126.385 50.0693 126.385 50.88C126.385 51.488 126.247 52.0373 125.97 52.528C125.692 53.008 125.276 53.3867 124.722 53.664C124.167 53.9413 123.5 54.08 122.722 54.08C121.591 54.08 120.663 53.7867 119.938 53.2C119.212 52.6027 118.807 51.76 118.722 50.672H120.13C120.204 51.312 120.466 51.8347 120.914 52.24C121.362 52.6453 121.959 52.848 122.706 52.848C123.452 52.848 124.018 52.656 124.402 52.272C124.796 51.8773 124.994 51.3707 124.994 50.752C124.994 49.952 124.727 49.376 124.194 49.024C123.66 48.672 122.855 48.496 121.778 48.496H121.41V47.28H121.794C122.775 47.2693 123.516 47.1093 124.018 46.8C124.519 46.48 124.77 45.9893 124.77 45.328C124.77 44.7627 124.583 44.3093 124.21 43.968C123.847 43.6267 123.324 43.456 122.641 43.456C121.98 43.456 121.447 43.6267 121.042 43.968C120.636 44.3093 120.396 44.768 120.322 45.344H118.898Z" fill="#292524"/>
<path d="M3.352 6.278V9.54H6.908V10.59H3.352V13.95H7.328V15H2.078V5.228H7.328V6.278H3.352ZM14.5757 9.33V10.408H8.98973V9.33H14.5757ZM26.1927 7.188C26.79 7.188 27.322 7.314 27.7887 7.566C28.2553 7.80867 28.624 8.17733 28.8947 8.672C29.1653 9.16667 29.3007 9.76867 29.3007 10.478V15H28.0407V10.66C28.0407 9.89467 27.8493 9.31133 27.4667 8.91C27.0933 8.49933 26.5847 8.294 25.9407 8.294C25.278 8.294 24.7507 8.50867 24.3587 8.938C23.9667 9.358 23.7707 9.96933 23.7707 10.772V15H22.5107V10.66C22.5107 9.89467 22.3193 9.31133 21.9367 8.91C21.5633 8.49933 21.0547 8.294 20.4107 8.294C19.748 8.294 19.2207 8.50867 18.8287 8.938C18.4367 9.358 18.2407 9.96933 18.2407 10.772V15H16.9667V7.328H18.2407V8.434C18.4927 8.03267 18.8287 7.72467 19.2487 7.51C19.678 7.29533 20.1493 7.188 20.6627 7.188C21.3067 7.188 21.876 7.33267 22.3707 7.622C22.8653 7.91133 23.234 8.336 23.4767 8.896C23.6913 8.35467 24.046 7.93467 24.5407 7.636C25.0353 7.33733 25.586 7.188 26.1927 7.188ZM30.9145 11.136C30.9145 10.352 31.0732 9.666 31.3905 9.078C31.7078 8.48067 32.1418 8.01867 32.6925 7.692C33.2525 7.36533 33.8732 7.202 34.5545 7.202C35.2265 7.202 35.8098 7.34667 36.3045 7.636C36.7992 7.92533 37.1678 8.28933 37.4105 8.728V7.328H38.6985V15H37.4105V13.572C37.1585 14.02 36.7805 14.3933 36.2765 14.692C35.7818 14.9813 35.2032 15.126 34.5405 15.126C33.8592 15.126 33.2432 14.958 32.6925 14.622C32.1418 14.286 31.7078 13.8147 31.3905 13.208C31.0732 12.6013 30.9145 11.9107 30.9145 11.136ZM37.4105 11.15C37.4105 10.5713 37.2938 10.0673 37.0605 9.638C36.8272 9.20867 36.5098 8.882 36.1085 8.658C35.7165 8.42467 35.2825 8.308 34.8065 8.308C34.3305 8.308 33.8965 8.42 33.5045 8.644C33.1125 8.868 32.7998 9.19467 32.5665 9.624C32.3332 10.0533 32.2165 10.5573 32.2165 11.136C32.2165 11.724 32.3332 12.2373 32.5665 12.676C32.7998 13.1053 33.1125 13.4367 33.5045 13.67C33.8965 13.894 34.3305 14.006 34.8065 14.006C35.2825 14.006 35.7165 13.894 36.1085 13.67C36.5098 13.4367 36.8272 13.1053 37.0605 12.676C37.2938 12.2373 37.4105 11.7287 37.4105 11.15ZM41.5094 6.082C41.2668 6.082 41.0614 5.998 40.8934 5.83C40.7254 5.662 40.6414 5.45667 40.6414 5.214C40.6414 4.97133 40.7254 4.766 40.8934 4.598C41.0614 4.43 41.2668 4.346 41.5094 4.346C41.7428 4.346 41.9388 4.43 42.0974 4.598C42.2654 4.766 42.3494 4.97133 42.3494 5.214C42.3494 5.45667 42.2654 5.662 42.0974 5.83C41.9388 5.998 41.7428 6.082 41.5094 6.082ZM42.1254 7.328V15H40.8514V7.328H42.1254ZM45.5708 4.64V15H44.2968V4.64H45.5708Z" fill="#57534E"/>
</svg>
